<?xml version="1.0" encoding="UTF-8"?>
<svg xmlns="http://www.w3.org/2000/svg" xmlns:xlink="http://www.w3.org/1999/xlink" width="503pt" height="503pt" viewBox="0 0 503 503" version="1.1">
<g id="surface1">
<path style=" stroke:none;fill-rule:evenodd;fill:rgb(100%,35.301208%,0%);fill-opacity:1;" d="M 117.378906 126.214844 C 134.792969 126.214844 151.09375 130.972656 165.058594 139.257813 L 143.78125 170.785156 C 135.925781 166.546875 126.933594 164.140625 117.378906 164.140625 C 86.625 164.140625 61.695313 189.070313 61.695313 219.824219 C 61.695313 250.578125 86.625 275.511719 117.378906 275.511719 C 132.152344 275.511719 145.578125 269.757813 155.546875 260.367188 L 155.546875 239.777344 L 118.980469 239.777344 L 118.980469 201.851563 L 188.226563 201.851563 L 188.226563 203.53125 L 193.472656 203.53125 L 193.472656 272.777344 L 193.375 272.777344 L 193.960938 273.671875 C 177.015625 297.722656 149.035156 313.4375 117.378906 313.4375 C 65.679688 313.4375 23.769531 271.523438 23.769531 219.824219 C 23.769531 168.125 65.679688 126.214844 117.378906 126.214844 "/>
<path style=" stroke:none;fill-rule:evenodd;fill:rgb(100%,35.301208%,0%);fill-opacity:1;" d="M 257.445313 126.214844 C 309.148438 126.214844 351.058594 168.125 351.058594 219.824219 C 351.058594 271.523438 309.148438 313.4375 257.445313 313.4375 C 205.746094 313.4375 163.835938 271.523438 163.835938 219.824219 C 163.835938 168.125 205.746094 126.214844 257.445313 126.214844 Z M 257.445313 164.140625 C 288.199219 164.140625 313.132813 189.070313 313.132813 219.824219 C 313.132813 250.578125 288.199219 275.511719 257.445313 275.511719 C 226.691406 275.511719 201.761719 250.578125 201.761719 219.824219 C 201.761719 189.070313 226.691406 164.140625 257.445313 164.140625 "/>
<path style=" stroke:none;fill-rule:evenodd;fill:rgb(72.851563%,73.242188%,73.242188%);fill-opacity:1;" d="M 313.476563 126.214844 C 365.175781 126.214844 407.085938 168.125 407.085938 219.824219 C 407.085938 271.523438 365.175781 313.4375 313.476563 313.4375 C 261.773438 313.4375 219.863281 271.523438 219.863281 219.824219 C 219.863281 201.035156 225.402344 183.542969 234.929688 168.882813 C 241.816406 165.835938 249.433594 164.140625 257.445313 164.140625 C 267.660156 164.140625 277.230469 166.890625 285.460938 171.691406 C 268.910156 181.34375 257.789063 199.285156 257.789063 219.824219 C 257.789063 250.578125 282.71875 275.511719 313.476563 275.511719 C 344.230469 275.511719 369.160156 250.578125 369.160156 219.824219 C 369.160156 197.085938 355.527344 177.53125 335.988281 168.882813 C 324.246094 150.816406 306.445313 137.050781 285.460938 130.480469 C 294.304688 127.707031 303.714844 126.214844 313.476563 126.214844 "/>
<path style=" stroke:none;fill-rule:evenodd;fill:rgb(100%,35.301208%,0%);fill-opacity:1;" d="M 377.96875 126.214844 L 415.894531 126.214844 L 415.894531 313.4375 L 377.96875 313.4375 L 377.96875 126.214844 "/>
<path style=" stroke:none;fill-rule:evenodd;fill:rgb(100%,35.301208%,0%);fill-opacity:1;" d="M 377.96875 313.4375 L 377.96875 275.511719 L 479.507813 275.511719 L 479.507813 313.4375 L 377.96875 313.4375 "/>
<path style=" stroke:none;fill-rule:evenodd;fill:rgb(100%,35.301208%,0%);fill-opacity:1;" d="M 39.046875 367.136719 L 53.886719 367.136719 L 53.886719 364.121094 L 42.484375 364.121094 L 42.40625 338.886719 L 38.929688 338.886719 Z M 336.386719 337.378906 L 342.363281 337.378906 L 342.480469 367.136719 L 339 367.136719 L 338.894531 340.824219 L 336.386719 340.824219 Z M 272.503906 346.851563 L 278.433594 346.851563 L 278.515625 367.136719 L 275.035156 367.136719 L 275.003906 350.296875 L 272.503906 350.296875 Z M 54.914063 346.851563 L 60.84375 346.851563 L 60.925781 367.136719 L 57.449219 367.136719 L 57.414063 350.296875 L 54.914063 350.296875 Z M 59.339844 343.410156 C 60.722656 343.410156 61.5 342.449219 61.273438 341.066406 C 61.03125 339.808594 60.011719 338.886719 58.753906 338.886719 C 57.539063 338.886719 56.726563 339.890625 56.945313 341.234375 C 57.191406 342.492188 58.125 343.410156 59.339844 343.410156 Z M 70.527344 367.136719 L 70.457031 357.285156 C 70.40625 352.257813 73.347656 349.28125 75.820313 349.28125 C 78.210938 349.28125 79.296875 350.789063 79.691406 352.800781 C 79.859375 353.683594 79.914063 354.605469 79.941406 355.402344 L 80 367.136719 L 83.4375 367.136719 L 83.398438 355.273438 C 83.394531 354.1875 83.320313 352.925781 83.140625 352.003906 C 82.320313 347.773438 79.324219 346.390625 76.894531 346.390625 C 73.960938 346.390625 71.503906 347.980469 70.253906 350.832031 L 70.167969 350.832031 L 69.898438 346.851563 L 66.796875 346.851563 C 66.914063 348.527344 67.003906 350.496094 66.980469 352.761719 L 67.089844 367.136719 Z M 92.910156 367.136719 L 92.816406 356.949219 C 92.777344 352.425781 95.5625 349.28125 98.246094 349.28125 C 100.507813 349.28125 101.675781 350.746094 102.03125 352.59375 C 102.25 353.722656 102.3125 354.6875 102.324219 355.402344 L 102.339844 367.136719 L 105.820313 367.136719 L 105.773438 355.234375 C 105.785156 354.226563 105.652344 352.886719 105.449219 351.839844 C 104.660156 347.773438 101.667969 346.390625 99.359375 346.390625 C 96.300781 346.390625 94.128906 347.941406 92.890625 350.414063 L 92.804688 350.414063 L 92.792969 337.378906 L 89.3125 337.378906 L 89.429688 367.136719 Z M 128.539063 367.136719 C 128.015625 364.875 127.566406 361.269531 127.554688 357.746094 L 127.589844 347.144531 C 126.085938 346.722656 123.925781 346.390625 121.953125 346.390625 C 113.109375 346.390625 109.351563 353.808594 110.726563 360.890625 C 111.476563 364.746094 114.25 367.597656 117.855469 367.597656 C 120.746094 367.597656 123.269531 366.132813 124.628906 361.898438 L 124.714844 361.898438 C 124.867188 363.992188 125.03125 365.921875 125.269531 367.136719 Z M 124.113281 355.570313 C 124.15625 360.976563 121.449219 364.746094 118.558594 364.746094 C 115.875 364.746094 114.648438 362.527344 114.210938 360.261719 C 113.109375 354.605469 116.371094 349.15625 121.652344 349.15625 C 122.824219 349.15625 123.605469 349.28125 124.097656 349.449219 Z M 132.710938 366.171875 C 133.769531 366.886719 135.863281 367.515625 138.050781 367.558594 C 142.324219 367.558594 145.300781 365.167969 144.46875 360.890625 C 144.03125 358.628906 142.171875 356.824219 139.664063 355.570313 C 137.625 354.5625 136.480469 353.640625 136.195313 352.171875 C 135.855469 350.414063 137.109375 349.113281 139.207031 349.113281 C 140.714844 349.113281 142.113281 349.617188 142.90625 350.035156 L 143.359375 347.394531 C 142.507813 346.890625 140.773438 346.390625 138.929688 346.390625 C 134.65625 346.390625 132.121094 349.113281 132.808594 352.632813 C 133.214844 354.730469 134.863281 356.53125 137.460938 357.832031 C 139.828125 359.007813 140.730469 359.96875 141.039063 361.5625 C 141.386719 363.363281 140.171875 364.875 137.824219 364.875 C 136.148438 364.875 134.296875 364.203125 133.21875 363.617188 Z M 173.683594 367.136719 C 173.160156 364.875 172.710938 361.269531 172.699219 357.746094 L 172.734375 347.144531 C 171.230469 346.722656 169.070313 346.390625 167.097656 346.390625 C 158.253906 346.390625 154.496094 353.808594 155.871094 360.890625 C 156.621094 364.746094 159.394531 367.597656 163 367.597656 C 165.894531 367.597656 168.414063 366.132813 169.773438 361.898438 L 169.859375 361.898438 C 170.011719 363.992188 170.175781 365.921875 170.414063 367.136719 Z M 169.257813 355.570313 C 169.300781 360.976563 166.597656 364.746094 163.703125 364.746094 C 161.019531 364.746094 159.792969 362.527344 159.355469 360.261719 C 158.257813 354.605469 161.515625 349.15625 166.796875 349.15625 C 167.972656 349.15625 168.75 349.28125 169.242188 349.449219 Z M 192.238281 363.40625 C 191.113281 364.078125 189.449219 364.789063 187.058594 364.789063 C 184.964844 364.789063 183.15625 363.910156 182.003906 362.066406 C 181.332031 360.976563 180.839844 359.089844 180.835938 358.210938 C 188.363281 358.335938 194.089844 356.949219 193.054688 351.628906 C 192.484375 348.695313 189.941406 346.390625 186.089844 346.390625 C 179.546875 346.390625 176.363281 353.304688 177.550781 359.425781 C 178.421875 363.910156 181.484375 367.597656 186.851563 367.597656 C 189.574219 367.597656 191.902344 366.84375 193.246094 366.003906 Z M 189.710938 351.671875 C 190.328125 354.855469 186.199219 355.609375 180.691406 355.527344 C 180.953125 352.339844 182.800781 349.113281 186.113281 349.113281 C 187.957031 349.113281 189.394531 350.035156 189.710938 351.671875 Z M 186.796875 338.382813 L 183.808594 344.378906 L 186.535156 344.378906 L 190.945313 338.382813 Z M 201.304688 367.136719 L 201.246094 358.210938 C 201.210938 353.472656 203.183594 349.824219 206.203125 349.824219 C 206.578125 349.824219 206.925781 349.867188 207.183594 349.910156 L 207.1875 346.472656 C 206.886719 346.429688 206.5 346.390625 206.164063 346.390625 C 203.441406 346.390625 201.667969 348.484375 200.902344 351.25 L 200.777344 351.25 C 200.6875 349.699219 200.578125 348.273438 200.46875 346.851563 L 197.410156 346.851563 C 197.566406 348.734375 197.753906 351.417969 197.804688 354.058594 L 197.867188 367.136719 Z M 224.304688 363.40625 C 223.179688 364.078125 221.515625 364.789063 219.125 364.789063 C 217.03125 364.789063 215.222656 363.910156 214.070313 362.066406 C 213.398438 360.976563 212.90625 359.089844 212.902344 358.210938 C 220.429688 358.335938 226.15625 356.949219 225.121094 351.628906 C 224.550781 348.695313 222.007813 346.390625 218.152344 346.390625 C 211.613281 346.390625 208.429688 353.304688 209.617188 359.425781 C 210.488281 363.910156 213.550781 367.597656 218.914063 367.597656 C 221.640625 367.597656 223.96875 366.84375 225.3125 366.003906 Z M 221.777344 351.671875 C 222.394531 354.855469 218.265625 355.609375 212.757813 355.527344 C 213.019531 352.339844 214.867188 349.113281 218.179688 349.113281 C 220.023438 349.113281 221.460938 350.035156 221.777344 351.671875 Z M 246.617188 367.136719 C 246.09375 364.875 245.644531 361.269531 245.632813 357.746094 L 245.671875 347.144531 C 244.164063 346.722656 242.003906 346.390625 240.03125 346.390625 C 231.1875 346.390625 227.429688 353.808594 228.804688 360.890625 C 229.554688 364.746094 232.328125 367.597656 235.933594 367.597656 C 238.828125 367.597656 241.351563 366.132813 242.707031 361.898438 L 242.792969 361.898438 C 242.945313 363.992188 243.109375 365.921875 243.347656 367.136719 Z M 242.191406 355.570313 C 242.234375 360.976563 239.53125 364.746094 236.640625 364.746094 C 233.953125 364.746094 232.726563 362.527344 232.289063 360.261719 C 231.191406 354.605469 234.449219 349.15625 239.730469 349.15625 C 240.90625 349.15625 241.683594 349.28125 242.175781 349.449219 Z M 250.789063 366.171875 C 251.851563 366.886719 253.941406 367.515625 256.128906 367.558594 C 260.40625 367.558594 263.378906 365.167969 262.550781 360.890625 C 262.109375 358.628906 260.25 356.824219 257.742188 355.570313 C 255.703125 354.5625 254.5625 353.640625 254.277344 352.171875 C 253.933594 350.414063 255.191406 349.113281 257.285156 349.113281 C 258.796875 349.113281 260.191406 349.617188 260.984375 350.035156 L 261.4375 347.394531 C 260.585938 346.890625 258.855469 346.390625 257.011719 346.390625 C 252.734375 346.390625 250.203125 349.113281 250.886719 352.632813 C 251.292969 354.730469 252.941406 356.53125 255.539063 357.832031 C 257.90625 359.007813 258.808594 359.96875 259.117188 361.5625 C 259.464844 363.363281 258.25 364.875 255.902344 364.875 C 254.226563 364.875 252.378906 364.203125 251.300781 363.617188 Z M 276.929688 343.410156 C 278.3125 343.410156 279.089844 342.449219 278.863281 341.066406 C 278.617188 339.808594 277.601563 338.886719 276.34375 338.886719 C 275.128906 338.886719 274.316406 339.890625 274.535156 341.234375 C 274.78125 342.492188 275.714844 343.410156 276.929688 343.410156 Z M 288.113281 367.136719 L 288.046875 357.285156 C 287.992188 352.257813 290.9375 349.28125 293.410156 349.28125 C 295.800781 349.28125 296.886719 350.789063 297.277344 352.800781 C 297.449219 353.683594 297.503906 354.605469 297.53125 355.402344 L 297.589844 367.136719 L 301.023438 367.136719 L 300.984375 355.273438 C 300.984375 354.1875 300.90625 352.925781 300.726563 352.003906 C 299.90625 347.773438 296.914063 346.390625 294.484375 346.390625 C 291.550781 346.390625 289.089844 347.980469 287.84375 350.832031 L 287.757813 350.832031 L 287.488281 346.851563 L 284.386719 346.851563 C 284.503906 348.527344 284.589844 350.496094 284.570313 352.761719 L 284.679688 367.136719 Z M 307.671875 343.078125 L 307.691406 346.851563 L 304.800781 346.851563 L 304.824219 349.574219 L 307.71875 349.574219 L 307.742188 359.84375 C 307.730469 361.3125 307.785156 362.441406 308.011719 363.617188 C 308.417969 365.710938 309.992188 367.558594 313.050781 367.558594 C 314.058594 367.558594 315.082031 367.429688 315.664063 367.179688 L 315.300781 364.453125 C 314.863281 364.578125 314.328125 364.621094 313.699219 364.621094 C 312.355469 364.621094 311.625 363.867188 311.386719 362.652344 C 311.1875 361.605469 311.148438 360.554688 311.179688 359.425781 L 311.113281 349.574219 L 315.976563 349.574219 L 315.992188 346.851563 L 311.128906 346.851563 L 311.109375 341.988281 Z M 333.371094 363.40625 C 332.246094 364.078125 330.582031 364.789063 328.191406 364.789063 C 326.097656 364.789063 324.289063 363.910156 323.136719 362.066406 C 322.464844 360.976563 321.972656 359.089844 321.96875 358.210938 C 329.496094 358.335938 335.222656 356.949219 334.1875 351.628906 C 333.617188 348.695313 331.074219 346.390625 327.21875 346.390625 C 320.679688 346.390625 317.496094 353.304688 318.683594 359.425781 C 319.554688 363.910156 322.617188 367.597656 327.984375 367.597656 C 330.707031 367.597656 333.035156 366.84375 334.378906 366.003906 Z M 330.84375 351.671875 C 331.460938 354.855469 327.332031 355.609375 321.824219 355.527344 C 322.089844 352.339844 323.933594 349.113281 327.246094 349.113281 C 329.089844 349.113281 330.527344 350.035156 330.84375 351.671875 Z M 352.035156 367.136719 L 351.953125 346.851563 L 348.519531 346.851563 L 348.558594 367.136719 Z M 350.449219 343.410156 C 351.832031 343.410156 352.609375 342.449219 352.382813 341.066406 C 352.140625 339.808594 351.121094 338.886719 349.867188 338.886719 C 348.648438 338.886719 347.839844 339.890625 348.058594 341.234375 C 348.300781 342.492188 349.234375 343.410156 350.449219 343.410156 Z M 358.828125 374.472656 C 360.246094 375.3125 362.707031 375.898438 365.179688 375.898438 C 367.488281 375.898438 370.113281 375.394531 371.835938 373.675781 C 373.570313 371.832031 374.175781 368.898438 374.136719 364.578125 L 374.023438 347.8125 C 372.285156 347.058594 369.554688 346.390625 367.207031 346.390625 C 359.371094 346.390625 355.664063 353.222656 357 360.09375 C 357.699219 363.699219 360.460938 367.136719 364.570313 367.136719 C 367.335938 367.136719 369.53125 365.710938 370.773438 362.820313 L 370.859375 362.820313 L 370.78125 365.878906 C 370.675781 371.371094 368.324219 373.089844 364.886719 373.089844 C 362.792969 373.089844 360.632813 372.546875 359.261719 371.746094 Z M 370.628906 356.660156 C 370.636719 360.597656 368.351563 364.371094 365.375 364.371094 C 362.273438 364.371094 360.929688 361.773438 360.53125 359.507813 C 359.5625 354.519531 362.050781 349.195313 367.125 349.195313 C 368.550781 349.195313 369.878906 349.574219 370.609375 349.867188 Z M 393.523438 363.40625 C 392.394531 364.078125 390.730469 364.789063 388.34375 364.789063 C 386.246094 364.789063 384.441406 363.910156 383.285156 362.066406 C 382.613281 360.976563 382.121094 359.089844 382.117188 358.210938 C 389.644531 358.335938 395.371094 356.949219 394.339844 351.628906 C 393.769531 348.695313 391.226563 346.390625 387.371094 346.390625 C 380.828125 346.390625 377.644531 353.304688 378.835938 359.425781 C 379.703125 363.910156 382.769531 367.597656 388.132813 367.597656 C 390.859375 367.597656 393.183594 366.84375 394.527344 366.003906 Z M 390.992188 351.671875 C 391.613281 354.855469 387.480469 355.609375 381.976563 355.527344 C 382.238281 352.339844 384.085938 349.113281 387.394531 349.113281 C 389.238281 349.113281 390.675781 350.035156 390.992188 351.671875 Z M 402.589844 367.136719 L 402.519531 357.285156 C 402.464844 352.257813 405.410156 349.28125 407.882813 349.28125 C 410.273438 349.28125 411.359375 350.789063 411.753906 352.800781 C 411.921875 353.683594 411.976563 354.605469 412.003906 355.402344 L 412.0625 367.136719 L 415.496094 367.136719 L 415.460938 355.273438 C 415.457031 354.1875 415.378906 352.925781 415.203125 352.003906 C 414.378906 347.773438 411.386719 346.390625 408.957031 346.390625 C 406.023438 346.390625 403.5625 347.980469 402.316406 350.832031 L 402.230469 350.832031 L 401.960938 346.851563 L 398.859375 346.851563 C 398.976563 348.527344 399.0625 350.496094 399.042969 352.761719 L 399.152344 367.136719 Z M 422.144531 343.078125 L 422.164063 346.851563 L 419.273438 346.851563 L 419.300781 349.574219 L 422.191406 349.574219 L 422.214844 359.84375 C 422.203125 361.3125 422.257813 362.441406 422.484375 363.617188 C 422.890625 365.710938 424.464844 367.558594 427.527344 367.558594 C 428.53125 367.558594 429.554688 367.429688 430.136719 367.179688 L 429.773438 364.453125 C 429.339844 364.578125 428.800781 364.621094 428.171875 364.621094 C 426.828125 364.621094 426.097656 363.867188 425.859375 362.652344 C 425.660156 361.605469 425.621094 360.554688 425.652344 359.425781 L 425.585938 349.574219 L 430.449219 349.574219 L 430.464844 346.851563 L 425.601563 346.851563 L 425.582031 341.988281 Z M 447.84375 363.40625 C 446.71875 364.078125 445.054688 364.789063 442.664063 364.789063 C 440.570313 364.789063 438.761719 363.910156 437.609375 362.066406 C 436.9375 360.976563 436.445313 359.089844 436.441406 358.210938 C 443.96875 358.335938 449.695313 356.949219 448.660156 351.628906 C 448.089844 348.695313 445.550781 346.390625 441.691406 346.390625 C 435.152344 346.390625 431.96875 353.304688 433.15625 359.425781 C 434.027344 363.910156 437.089844 367.597656 442.457031 367.597656 C 445.179688 367.597656 447.507813 366.84375 448.851563 366.003906 Z M 445.316406 351.671875 C 445.933594 354.855469 441.804688 355.609375 436.296875 355.527344 C 436.5625 352.339844 438.40625 349.113281 441.71875 349.113281 C 443.5625 349.113281 445 350.035156 445.316406 351.671875 Z M 452.449219 366.171875 C 453.507813 366.886719 455.601563 367.515625 457.789063 367.558594 C 462.0625 367.558594 465.039063 365.167969 464.207031 360.890625 C 463.769531 358.628906 461.910156 356.824219 459.402344 355.570313 C 457.363281 354.5625 456.21875 353.640625 455.933594 352.171875 C 455.59375 350.414063 456.847656 349.113281 458.945313 349.113281 C 460.453125 349.113281 461.851563 349.617188 462.644531 350.035156 L 463.097656 347.394531 C 462.246094 346.890625 460.511719 346.390625 458.667969 346.390625 C 454.394531 346.390625 451.859375 349.113281 452.546875 352.632813 C 452.949219 354.730469 454.601563 356.53125 457.199219 357.832031 C 459.566406 359.007813 460.464844 359.96875 460.773438 361.5625 C 461.125 363.363281 459.910156 364.875 457.5625 364.875 C 455.886719 364.875 454.035156 364.203125 452.957031 363.617188 L 452.449219 366.171875 "/>
</g>
</svg>
